# xmcd
#
# Track frame offsets:
#	150
#	18854
#	34500
#	56297
#	72333
#	91625
#	120066
#	145024
#	164658
#	189497
#
# Disc length: 2559 seconds
#
# Revision: 0
# Processed by: cddbd v1.5.2PL0 Copyright (c) Steve Scherf et al.
# Submitted via: EZCDAudioConverter 4.0.4.1
#
DISCID=7009fd0a
DTITLE=Barbara Dane and The Chambers Brothers - Folkways Records FA 2468
DYEAR=1966
DGENRE=Blues
TTITLE0=It Isnt' Nice
TTITLE1=You've Got to Reap What You Sow
TTITLE2=You Can't Make It by Yourself
TTITLE3=Pack Up Your Sorrows
TTITLE4=I Am a Weary and a Lonesome
TTITLE5=We'll Never Turn Back
TTITLE6=Come By Here
TTITLE7=Freedom is a Constant Struggle
TTITLE8=Go Tell it on the Moutain
TTITLE9=PDF File
EXTD=
EXTT0=
EXTT1=
EXTT2=
EXTT3=
EXTT4=
EXTT5=
EXTT6=
EXTT7=
EXTT8=
EXTT9=
PLAYORDER=
